# xmcd
#
# Track frame offsets:
#	150
#	16575
#	33825
#	50400
#	67275
#	84000
#	97425
#	113550
#	128700
#	141525
#	157500
#	173925
#	191175
#	207750
#	224625
#	241350
#	254775
#	270900
#	286050
#	298875
#
# Disc length: 4201 seconds
#
# Revision: 1
# Processed by: cddbd v1.5.1PL2 Copyright (c) Steve Scherf et al.
# Submitted via: audiograbber 1.83.01
#
DISCID=2c106714
DTITLE=Country Hits Today - Cht9811
DYEAR=1900
DGENRE=Karaoke
TTITLE0=Shania Twain - Honey I'm Home
TTITLE1=Garth Brooks - You Move Me
TTITLE2=Dixie Chicks - Wide Open Spaces
TTITLE3=Collin Raye - Someone You Used To Know
TTITLE4=Lee Ann Womack - Little Past Little Rock
TTITLE5=Alabama - How Do You Fall In Love
TTITLE6=Terri Clark - You're Easy On The Eyes
TTITLE7=Tracy Byrd - I Wanna Feel That Way Again
TTITLE8=Clint Black - Loosen Up My Strings
TTITLE9=Dwight Yoakam - These Arms
TTITLE10=Shania Twain - Honey I'm Home (Vocal)
TTITLE11=Garth Brooks - You Move Me (Vocal)
TTITLE12=Dixie Chicks - Wide Open Spaces (Vocal)
TTITLE13=Collin Raye - Someone You Used To Know (Vocal)
TTITLE14=Lee Ann Womack - Little Past Little Rock (Vocal)
TTITLE15=Alabama - How Do You Fall In Love (Vocal)
TTITLE16=Terri Clark - You're Easy On The Eyes (Vocal)
TTITLE17=Tracy Byrd - I Wanna Feel That Way Again (Vocal)
TTITLE18=Clint Black - Loosen Up My Strings (Vocal)
TTITLE19=Dwight Yoakam - These Arms (Vocal)
EXTD=
EXTT0=
EXTT1=
EXTT2=
EXTT3=
EXTT4=
EXTT5=
EXTT6=
EXTT7=
EXTT8=
EXTT9=
EXTT10=
EXTT11=
EXTT12=
EXTT13=
EXTT14=
EXTT15=
EXTT16=
EXTT17=
EXTT18=
EXTT19=
PLAYORDER=
